<?xml version="1.0" standalone="no"?>
<!DOCTYPE svg PUBLIC "-//W3C//DTD SVG 20010904//EN"
 "http://www.w3.org/TR/2001/REC-SVG-20010904/DTD/svg10.dtd">
<svg version="1.0" xmlns="http://www.w3.org/2000/svg"
 width="512.000000pt" height="512.000000pt" viewBox="0 0 512.000000 512.000000"
 preserveAspectRatio="xMidYMid meet">
<metadata>
Created by potrace 1.11, written by Peter Selinger 2001-2013
</metadata>
<g transform="translate(0.000000,512.000000) scale(0.100000,-0.100000)"
fill="#000000" stroke="none">
<path d="M551 5105 c-193 -42 -363 -184 -446 -370 -26 -59 -29 -71 -44 -160
-13 -70 -6 -193 14 -261 23 -78 75 -179 123 -236 l40 -47 183 184 184 183 72
-71 c40 -39 73 -74 73 -77 0 -4 -8 -15 -17 -26 -184 -204 -300 -370 -414 -592
-81 -158 -168 -396 -195 -532 -3 -14 -9 -41 -14 -60 -13 -50 -39 -215 -47
-301 -13 -140 -7 -468 11 -565 2 -10 9 -53 16 -94 6 -41 19 -102 27 -135 8
-33 17 -71 20 -84 6 -36 81 -256 104 -309 195 -441 441 -758 815 -1050 16 -12
68 -48 116 -80 48 -31 87 -61 88 -65 0 -4 -49 -58 -110 -119 -116 -117 -125
-134 -99 -192 16 -34 70 -52 108 -37 15 7 83 68 151 136 l123 124 39 -20 c111
-56 406 -162 515 -184 214 -43 327 -56 528 -59 110 -2 232 0 270 5 119 14 159
19 185 24 14 3 41 7 60 10 19 4 55 11 80 16 25 6 53 12 63 14 89 19 345 111
453 164 l59 29 130 -128 c84 -82 140 -130 159 -134 57 -14 106 27 106 88 0 30
-24 60 -137 172 l-93 92 80 51 c361 235 682 596 873 982 87 176 160 373 192
517 20 90 37 173 41 202 26 199 31 265 29 429 -2 102 -5 202 -8 221 -4 19 -9
57 -12 84 -5 44 -27 164 -41 226 -3 14 -7 34 -9 45 -11 48 -76 247 -105 320
-37 93 -145 313 -166 336 -8 8 -14 19 -14 23 0 25 -261 377 -296 398 -6 4 -19
19 -29 34 l-17 26 68 69 c38 38 73 69 79 69 5 0 88 -79 184 -175 96 -96 179
-175 185 -175 16 1 79 87 113 155 51 102 66 168 66 290 0 94 -4 122 -27 190
-62 180 -177 310 -337 383 -104 47 -154 57 -279 56 -97 -1 -127 -5 -188 -27
-80 -28 -162 -74 -218 -122 l-35 -30 205 -205 205 -205 -72 -72 c-39 -40 -75
-73 -79 -73 -4 0 -51 35 -105 78 -372 297 -782 473 -1250 537 -133 19 -366 24
-518 11 -49 -4 -97 -7 -105 -8 -8 0 -35 -4 -60 -8 -25 -5 -65 -11 -90 -15
-191 -28 -454 -117 -681 -232 -166 -84 -300 -170 -441 -284 -54 -44 -101 -79
-105 -79 -4 0 -40 32 -80 72 l-72 72 202 203 c111 112 203 205 205 207 5 6
-108 88 -153 113 -38 20 -118 50 -160 59 -53 12 -215 11 -274 -1z"/>
</g>
</svg>
